# xmcd
#
# Track frame offsets: 
#        150
#        16170
#        29684
#        49351
#        62941
#        77801
#        92856
#        110634
#        126624
#        149296
#        163796
#        180251
#        197730
#        216593
#        230110
#        247555
#        259701
#
# Disc length: 3755 seconds
#
# Revision: 0
# Processed by: cddbd v1.5.2PL0 Copyright (c) Steve Scherf et al.
# Submitted via: ExactAudioCopy v0.99pb5
#
DISCID=fd0ea911
DTITLE=Various Artist - 100 70'er Hits [CD6]
DYEAR=2009
DGENRE=Rock
TTITLE0=Sebastian - Måske Ku' Vi
TTITLE1=John Denver - Annie's Song
TTITLE2=Heart - Barracuda
TTITLE3=Middle Of The Road - Chripy Chirpy Cheep Cheep
TTITLE4=Dan Fogelberg - Part Of The Plan
TTITLE5=Perry Como - And I Love You So
TTITLE6=Ram Jam - Black Betty
TTITLE7=Eruption - One Way Ticket
TTITLE8=Heatwave - Boogie Nights
TTITLE9=Sweet - Little Willy
TTITLE10=Ted Nugent - Cat Scrach Fever
TTITLE11=Amanda Lear - Follow Me
TTITLE12=Cheap Trick - Surrender
TTITLE13=Andy Williams - Love Theme From "The Godfather" (Speak Softly
TTITLE13=Love)
TTITLE14=The Isley Brothers - Harvest For The World
TTITLE15=Charlie Rich - The Most Beautiful Girl
TTITLE16=Simon and Garfunkel - Bridge Over Trouble Waters
EXTD=
EXTT0=
EXTT1=
EXTT2=
EXTT3=
EXTT4=
EXTT5=
EXTT6=
EXTT7=
EXTT8=
EXTT9=
EXTT10=
EXTT11=
EXTT12=
EXTT13=
EXTT14=
EXTT15=
EXTT16=
PLAYORDER=
